<svg width="83" height="97" viewBox="0 0 83 97" fill="none" xmlns="http://www.w3.org/2000/svg">
<path d="M41.6106 45.6882C41.2248 45.6882 40.8391 45.5854 40.4933 45.3797L21.1491 33.8685C20.0802 33.2323 19.7139 31.8237 20.331 30.7221C20.9477 29.6204 22.3148 29.2434 23.3836 29.8789L41.6106 40.7255L59.8374 29.8789C60.9068 29.2434 62.273 29.6207 62.89 30.7221C63.5071 31.8237 63.1408 33.2323 62.072 33.8685L42.7279 45.3797C42.3823 45.5854 41.9964 45.6882 41.6106 45.6882Z" fill="white"/>
<path d="M37.3127 76.3835C36.0785 76.3835 35.0779 75.3524 35.0779 74.0804V52.3875L16.8511 41.5407C15.7823 40.9045 15.4161 39.496 16.0331 38.3943C16.65 37.2926 18.0169 36.9153 19.0858 37.5512L38.43 49.0629C39.1215 49.4744 39.5473 50.2348 39.5473 51.0577V74.0804C39.5473 75.3524 38.5468 76.3835 37.3127 76.3835Z" fill="white"/>
<path d="M45.9083 76.3835C44.6742 76.3835 43.6738 75.3524 43.6738 74.0804V51.0573C43.6738 50.2344 44.0996 49.4741 44.7911 49.0626L64.1354 37.5512C65.2044 36.9156 66.5709 37.293 67.188 38.3943C67.805 39.496 67.4388 40.9045 66.37 41.5407L48.143 52.3873V74.0804C48.143 75.3524 47.1426 76.3835 45.9083 76.3835Z" fill="white"/>
<path d="M41.6105 96.5901C41.268 96.5901 40.9254 96.4986 40.6187 96.3164L1.93019 73.2934C1.31651 72.9282 0.938477 72.2532 0.938477 71.5228V25.477C0.938477 24.7467 1.31651 24.0717 1.93019 23.7065L40.6187 0.683632C40.9254 0.501434 41.268 0.409897 41.6105 0.409897C41.9529 0.409897 42.2954 0.501434 42.6022 0.683632L81.2907 23.7065C81.9043 24.0717 82.2824 24.7467 82.2824 25.477V71.5228C82.2824 72.2532 81.9043 72.9282 81.2907 73.2934L42.6022 96.3164C42.2954 96.4986 41.953 96.5901 41.6105 96.5901ZM41.6105 4.81518L4.90535 26.6572V70.3426L41.6105 92.1848L78.3156 70.3426V26.6572L41.6105 4.81518Z" fill="white" fill-opacity="0.15"/>
</svg>
